<svg xmlns="http://www.w3.org/2000/svg" xmlns:xlink="http://www.w3.org/1999/xlink" width="500" zoomAndPan="magnify" viewBox="0 0 375 374.999991" height="500" preserveAspectRatio="xMidYMid meet" version="1.0"><defs><g/><clipPath id="ea1648f534"><path d="M 187.5 143 L 217 143 L 217 170.320312 L 187.5 170.320312 Z M 187.5 143 " clip-rule="nonzero"/></clipPath><clipPath id="65eb4fb8dd"><path d="M 267 131.324219 L 282 131.324219 L 282 146 L 267 146 Z M 267 131.324219 " clip-rule="nonzero"/></clipPath></defs><path fill="#ffffff" d="M 269.472656 142.074219 C 264.5 146.46875 259.070312 151.324219 254.097656 155.71875 C 254.101562 155.722656 254.101562 155.726562 254.105469 155.730469 C 254.15625 155.800781 254.203125 155.875 254.246094 155.960938 C 254.292969 156.042969 254.332031 156.128906 254.363281 156.210938 C 254.730469 157.027344 254.949219 157.910156 255.011719 158.800781 C 260.40625 154.03125 266.257812 148.804688 271.648438 144.039062 C 270.800781 143.535156 270.054688 142.863281 269.472656 142.074219 Z M 269.472656 142.074219 " fill-opacity="1" fill-rule="nonzero"/><path fill="#ffffff" d="M 228.816406 142.097656 C 228.738281 143.183594 228.402344 144.230469 227.867188 145.152344 C 232.386719 149.148438 237.363281 153.601562 241.886719 157.59375 C 242.121094 156.601562 242.5625 155.664062 243.203125 154.867188 C 238.558594 150.765625 233.457031 146.203125 228.816406 142.097656 Z M 228.816406 142.097656 " fill-opacity="1" fill-rule="nonzero"/><g clip-path="url(#ea1648f534)"><path fill="#ffffff" d="M 198.742188 157.820312 C 197.605469 156.957031 196.183594 156.425781 194.566406 156.339844 C 190.632812 156.125 187.792969 159.695312 187.597656 163.324219 C 187.382812 167.269531 190.941406 170.117188 194.566406 170.3125 C 198.339844 170.515625 201.101562 167.234375 201.492188 163.761719 C 201.523438 163.628906 201.542969 163.488281 201.535156 163.324219 C 201.542969 163.167969 201.523438 163.027344 201.492188 162.898438 C 201.382812 161.847656 201.09375 160.882812 200.636719 160.039062 C 205.929688 155.363281 211.449219 150.457031 216.738281 145.78125 C 216.121094 144.972656 215.675781 144.03125 215.484375 143 C 209.980469 147.863281 204.246094 152.957031 198.742188 157.820312 Z M 190.511719 163.324219 C 190.230469 158.085938 198.335938 158.113281 198.617188 163.324219 C 198.335938 168.558594 190.792969 168.558594 190.511719 163.324219 Z M 190.511719 163.324219 " fill-opacity="1" fill-rule="nonzero"/></g><path fill="#ffffff" d="M 229.011719 141.011719 C 229.003906 140.957031 228.992188 140.902344 228.984375 140.847656 C 228.980469 140.773438 228.972656 140.699219 228.957031 140.621094 C 228.296875 137.105469 225.050781 134.628906 221.496094 134.929688 C 217.878906 135.234375 215.246094 138.320312 215.148438 141.878906 C 215.136719 142.34375 215.175781 142.792969 215.253906 143.226562 C 215.449219 144.257812 215.890625 145.203125 216.511719 146.011719 C 217.882812 147.800781 220.121094 148.925781 222.449219 148.855469 C 224.875 148.78125 226.945312 147.359375 228.097656 145.382812 C 228.632812 144.457031 228.96875 143.414062 229.042969 142.328125 C 229.074219 141.894531 229.066406 141.453125 229.011719 141.011719 Z M 222.449219 145.929688 C 220.035156 146.148438 218.183594 144.199219 218.066406 141.878906 C 217.960938 139.792969 219.675781 138.21875 221.582031 137.84375 C 223.8125 137.402344 225.660156 139.222656 226.113281 141.242188 C 226.300781 143.558594 224.90625 145.710938 222.449219 145.929688 Z M 222.449219 145.929688 " fill-opacity="1" fill-rule="nonzero"/><path fill="#ffffff" d="M 254.476562 155.730469 C 254.433594 155.644531 254.382812 155.570312 254.332031 155.5 C 254.332031 155.496094 254.328125 155.492188 254.328125 155.488281 C 252.300781 152.28125 248.28125 151.25 244.917969 153.03125 C 244.140625 153.445312 243.492188 153.996094 242.972656 154.640625 C 242.332031 155.433594 241.890625 156.371094 241.65625 157.363281 C 241.238281 159.140625 241.476562 161.089844 242.40625 162.710938 C 244.246094 165.929688 248.289062 166.796875 251.511719 165.335938 C 254.1875 164.121094 255.4375 161.308594 255.242188 158.570312 C 255.179688 157.679688 254.960938 156.796875 254.59375 155.980469 C 254.5625 155.898438 254.523438 155.816406 254.476562 155.730469 Z M 250.304688 162.671875 C 248.574219 163.699219 246.234375 163.074219 245.082031 161.480469 C 243.746094 159.632812 244.253906 157.03125 246.097656 155.738281 C 248.117188 154.320312 250.777344 155.171875 251.957031 157.207031 C 252.964844 159.230469 252.214844 161.535156 250.304688 162.671875 Z M 250.304688 162.671875 " fill-opacity="1" fill-rule="nonzero"/><g clip-path="url(#65eb4fb8dd)"><path fill="#ffffff" d="M 281.910156 137.992188 C 281.808594 134.320312 278.71875 131.550781 275.191406 131.332031 C 275.113281 131.324219 275.035156 131.316406 274.949219 131.320312 C 274.867188 131.316406 274.789062 131.324219 274.710938 131.332031 C 271.046875 131.546875 268.296875 134.324219 267.988281 137.992188 C 267.855469 139.597656 268.351562 141.089844 269.242188 142.304688 C 269.824219 143.09375 270.570312 143.765625 271.421875 144.269531 C 272.65625 145 274.109375 145.378906 275.570312 145.257812 C 279.28125 144.945312 282.011719 141.664062 281.910156 137.992188 Z M 275.488281 142.34375 C 272.890625 142.855469 270.839844 140.382812 270.90625 137.992188 C 270.96875 135.855469 272.9375 134.300781 274.949219 134.246094 C 277.054688 134.304688 278.8125 135.855469 278.992188 137.992188 C 279.179688 140.207031 277.5625 141.929688 275.488281 142.34375 Z M 275.488281 142.34375 " fill-opacity="1" fill-rule="nonzero"/></g><g fill="#ffffff" fill-opacity="1"><g transform="translate(70.573303, 219.312744)"><g><path d="M 9.015625 -11.976562 C 5.214844 -11.976562 2.574219 -9.335938 2.574219 -5.539062 C 2.574219 -1.738281 5.214844 0.902344 9.015625 0.902344 C 12.816406 0.902344 15.453125 -1.738281 15.453125 -5.539062 C 15.453125 -9.335938 12.816406 -11.976562 9.015625 -11.976562 Z M 9.015625 -11.976562 "/></g></g></g><g fill="#ffffff" fill-opacity="1"><g transform="translate(83.838235, 219.312744)"><g><path d="M 37.15625 -17.644531 C 37.15625 -26.53125 31.359375 -35.289062 19.898438 -35.289062 C 8.4375 -35.289062 1.546875 -27.109375 1.546875 -17.066406 C 1.546875 -4.957031 9.402344 0.902344 19.253906 0.902344 C 28.078125 0.902344 34.515625 -3.476562 36.511719 -11.269531 L 25.113281 -11.269531 C 24.664062 -8.628906 22.667969 -6.953125 19.382812 -6.953125 C 16.097656 -6.953125 13.585938 -8.566406 13.007812 -14.296875 L 36.960938 -14.296875 C 37.089844 -15.453125 37.15625 -16.613281 37.15625 -17.644531 Z M 19.320312 -27.433594 C 22.410156 -27.433594 24.40625 -25.4375 25.050781 -21.378906 L 13.394531 -21.378906 C 14.167969 -25.628906 16.292969 -27.433594 19.320312 -27.433594 Z M 19.320312 -27.433594 "/></g></g></g><g fill="#ffffff" fill-opacity="1"><g transform="translate(118.675313, 219.312744)"><g><path d="M 14.8125 -47.332031 L 3.21875 -47.332031 L 3.21875 -12.171875 C 3.21875 -9.59375 3.21875 -7.855469 3.347656 -6.054688 C 3.605469 -1.480469 6.632812 0.644531 11.976562 0.644531 C 14.554688 0.644531 16.613281 0.515625 18.738281 0.320312 L 18.738281 -7.535156 C 15.710938 -7.40625 15.132812 -7.855469 14.941406 -9.207031 C 14.8125 -10.046875 14.8125 -10.753906 14.8125 -12.363281 Z M 14.8125 -47.332031 "/></g></g></g><g fill="#ffffff" fill-opacity="1"><g transform="translate(134.451628, 219.312744)"><g><path d="M 37.15625 -17.644531 C 37.15625 -26.53125 31.359375 -35.289062 19.898438 -35.289062 C 8.4375 -35.289062 1.546875 -27.109375 1.546875 -17.066406 C 1.546875 -4.957031 9.402344 0.902344 19.253906 0.902344 C 28.078125 0.902344 34.515625 -3.476562 36.511719 -11.269531 L 25.113281 -11.269531 C 24.664062 -8.628906 22.667969 -6.953125 19.382812 -6.953125 C 16.097656 -6.953125 13.585938 -8.566406 13.007812 -14.296875 L 36.960938 -14.296875 C 37.089844 -15.453125 37.15625 -16.613281 37.15625 -17.644531 Z M 19.320312 -27.433594 C 22.410156 -27.433594 24.40625 -25.4375 25.050781 -21.378906 L 13.394531 -21.378906 C 14.167969 -25.628906 16.292969 -27.433594 19.320312 -27.433594 Z M 19.320312 -27.433594 "/></g></g></g><g fill="#ffffff" fill-opacity="1"><g transform="translate(169.288706, 219.312744)"><g><path d="M 39.667969 -34.386719 L 26.980469 -34.386719 L 19.960938 -9.207031 L 12.878906 -34.386719 L 0 -34.386719 L 13.585938 0 L 26.078125 0 Z M 39.667969 -34.386719 "/></g></g></g><g fill="#ffffff" fill-opacity="1"><g transform="translate(204.576538, 219.312744)"><g><path d="M 23.632812 0 L 34.964844 0 C 34.453125 -3.800781 34.324219 -6.117188 34.324219 -8.691406 L 34.324219 -18.351562 C 34.324219 -20.476562 34.257812 -22.472656 34.128906 -24.210938 C 33.613281 -30.457031 29.878906 -35.289062 18.996094 -35.289062 C 10.304688 -35.289062 3.15625 -30.714844 3.089844 -22.667969 L 14.039062 -22.730469 C 14.230469 -25.695312 15.777344 -27.433594 18.480469 -27.433594 C 20.992188 -27.433594 22.410156 -25.886719 22.601562 -24.148438 C 22.730469 -23.054688 22.730469 -22.34375 22.730469 -21.636719 L 22.730469 -21.121094 L 20.542969 -21.121094 C 8.886719 -21.121094 1.933594 -16.613281 1.933594 -9.273438 C 1.933594 -2.640625 7.277344 0.902344 12.945312 0.902344 C 16.097656 0.902344 18.996094 0.128906 21.445312 -1.417969 L 22.859375 -5.023438 Z M 17.707031 -6.953125 C 15.390625 -6.953125 13.78125 -8.113281 13.78125 -10.175781 C 13.78125 -13.585938 17.515625 -14.941406 22.730469 -14.554688 L 22.730469 -12.300781 C 22.730469 -8.691406 20.027344 -6.953125 17.707031 -6.953125 Z M 17.707031 -6.953125 "/></g></g></g><g fill="#ffffff" fill-opacity="1"><g transform="translate(238.51209, 219.312744)"><g><path d="M 17.386719 -26.917969 L 24.984375 -26.917969 L 24.984375 -34.128906 L 17.386719 -34.128906 L 17.386719 -43.015625 L 5.796875 -43.015625 L 5.796875 -34.128906 L 0.320312 -34.128906 L 0.320312 -26.917969 L 5.796875 -26.917969 L 5.796875 -12.558594 C 5.796875 -10.625 5.796875 -9.015625 5.925781 -7.019531 C 6.3125 -1.738281 8.886719 0.902344 17.449219 0.902344 C 19.898438 0.902344 22.023438 0.707031 24.277344 0.320312 L 24.277344 -6.890625 C 18.804688 -6.632812 17.707031 -7.40625 17.449219 -10.882812 C 17.386719 -11.785156 17.386719 -13.070312 17.386719 -14.230469 Z M 17.386719 -26.917969 "/></g></g></g><g fill="#ffffff" fill-opacity="1"><g transform="translate(260.405872, 219.312744)"><g><path d="M 37.15625 -17.644531 C 37.15625 -26.53125 31.359375 -35.289062 19.898438 -35.289062 C 8.4375 -35.289062 1.546875 -27.109375 1.546875 -17.066406 C 1.546875 -4.957031 9.402344 0.902344 19.253906 0.902344 C 28.078125 0.902344 34.515625 -3.476562 36.511719 -11.269531 L 25.113281 -11.269531 C 24.664062 -8.628906 22.667969 -6.953125 19.382812 -6.953125 C 16.097656 -6.953125 13.585938 -8.566406 13.007812 -14.296875 L 36.960938 -14.296875 C 37.089844 -15.453125 37.15625 -16.613281 37.15625 -17.644531 Z M 19.320312 -27.433594 C 22.410156 -27.433594 24.40625 -25.4375 25.050781 -21.378906 L 13.394531 -21.378906 C 14.167969 -25.628906 16.292969 -27.433594 19.320312 -27.433594 Z M 19.320312 -27.433594 "/></g></g></g></svg>