<svg xmlns="http://www.w3.org/2000/svg" xmlns:xlink="http://www.w3.org/1999/xlink" width="500" zoomAndPan="magnify" viewBox="0 0 375 374.999991" height="500" preserveAspectRatio="xMidYMid meet" version="1.0"><defs><g/><clipPath id="0c42a736e7"><path d="M 191.367188 129 L 235 129 L 235 169.339844 L 191.367188 169.339844 Z M 191.367188 129 " clip-rule="nonzero"/></clipPath><clipPath id="9bc5a59665"><path d="M 308 112.347656 L 329.367188 112.347656 L 329.367188 133 L 308 133 Z M 308 112.347656 " clip-rule="nonzero"/></clipPath></defs><path fill="#252727" d="M 311.058594 128.058594 C 303.800781 134.480469 295.871094 141.574219 288.613281 147.996094 C 288.617188 148.003906 288.617188 148.011719 288.621094 148.015625 C 288.695312 148.117188 288.765625 148.230469 288.828125 148.355469 C 288.898438 148.476562 288.953125 148.597656 289 148.71875 C 289.539062 149.914062 289.855469 151.203125 289.945312 152.503906 C 297.820312 145.535156 306.363281 137.898438 314.238281 130.929688 C 313 130.195312 311.90625 129.214844 311.058594 128.058594 Z M 311.058594 128.058594 " fill-opacity="1" fill-rule="nonzero"/><path fill="#252727" d="M 251.699219 128.09375 C 251.589844 129.683594 251.101562 131.207031 250.316406 132.558594 C 256.917969 138.394531 264.183594 144.902344 270.78125 150.742188 C 271.125 149.292969 271.769531 147.921875 272.707031 146.757812 C 265.925781 140.761719 258.480469 134.09375 251.699219 128.09375 Z M 251.699219 128.09375 " fill-opacity="1" fill-rule="nonzero"/><g clip-path="url(#0c42a736e7)"><path fill="#252727" d="M 207.792969 151.074219 C 206.136719 149.8125 204.058594 149.035156 201.699219 148.90625 C 195.957031 148.597656 191.808594 153.808594 191.523438 159.117188 C 191.214844 164.878906 196.410156 169.042969 201.699219 169.328125 C 207.207031 169.625 211.242188 164.832031 211.808594 159.753906 C 211.855469 159.558594 211.882812 159.355469 211.871094 159.117188 C 211.882812 158.886719 211.855469 158.683594 211.8125 158.492188 C 211.652344 156.957031 211.226562 155.546875 210.5625 154.3125 C 218.289062 147.480469 226.347656 140.308594 234.070312 133.476562 C 233.167969 132.296875 232.519531 130.917969 232.238281 129.410156 C 224.203125 136.519531 215.832031 143.964844 207.792969 151.074219 Z M 195.78125 159.117188 C 195.371094 151.460938 207.203125 151.5 207.613281 159.117188 C 207.203125 166.769531 196.195312 166.769531 195.78125 159.117188 Z M 195.78125 159.117188 " fill-opacity="1" fill-rule="nonzero"/></g><path fill="#252727" d="M 251.984375 126.503906 C 251.976562 126.421875 251.960938 126.34375 251.945312 126.265625 C 251.941406 126.160156 251.929688 126.046875 251.910156 125.933594 C 250.945312 120.796875 246.207031 117.175781 241.015625 117.613281 C 235.734375 118.058594 231.890625 122.574219 231.746094 127.773438 C 231.730469 128.449219 231.785156 129.109375 231.90625 129.746094 C 232.1875 131.25 232.832031 132.628906 233.738281 133.808594 C 235.738281 136.425781 239.011719 138.070312 242.410156 137.96875 C 245.949219 137.863281 248.972656 135.785156 250.652344 132.894531 C 251.433594 131.542969 251.921875 130.015625 252.035156 128.429688 C 252.082031 127.792969 252.066406 127.148438 251.984375 126.503906 Z M 242.410156 133.695312 C 238.882812 134.011719 236.179688 131.164062 236.007812 127.773438 C 235.851562 124.722656 238.359375 122.425781 241.140625 121.875 C 244.394531 121.230469 247.09375 123.894531 247.753906 126.84375 C 248.027344 130.226562 245.992188 133.371094 242.410156 133.695312 Z M 242.410156 133.695312 " fill-opacity="1" fill-rule="nonzero"/><path fill="#252727" d="M 289.164062 148.019531 C 289.101562 147.890625 289.03125 147.78125 288.957031 147.679688 C 288.953125 147.671875 288.949219 147.667969 288.945312 147.660156 C 285.992188 142.976562 280.121094 141.46875 275.210938 144.074219 C 274.074219 144.675781 273.128906 145.480469 272.371094 146.421875 C 271.433594 147.585938 270.789062 148.957031 270.449219 150.40625 C 269.835938 153 270.183594 155.847656 271.542969 158.21875 C 274.230469 162.921875 280.132812 164.1875 284.835938 162.054688 C 288.742188 160.28125 290.566406 156.171875 290.28125 152.167969 C 290.191406 150.867188 289.875 149.578125 289.335938 148.382812 C 289.289062 148.261719 289.234375 148.140625 289.164062 148.019531 Z M 283.074219 158.160156 C 280.546875 159.664062 277.132812 158.75 275.449219 156.421875 C 273.5 153.722656 274.242188 149.917969 276.929688 148.027344 C 279.878906 145.953125 283.761719 147.199219 285.484375 150.175781 C 286.960938 153.136719 285.859375 156.5 283.074219 158.160156 Z M 283.074219 158.160156 " fill-opacity="1" fill-rule="nonzero"/><g clip-path="url(#9bc5a59665)"><path fill="#252727" d="M 329.214844 122.09375 C 329.066406 116.726562 324.554688 112.675781 319.410156 112.359375 C 319.296875 112.34375 319.179688 112.335938 319.054688 112.339844 C 318.933594 112.335938 318.820312 112.34375 318.707031 112.359375 C 313.359375 112.671875 309.34375 116.730469 308.894531 122.09375 C 308.695312 124.4375 309.425781 126.621094 310.722656 128.390625 C 311.570312 129.546875 312.664062 130.527344 313.90625 131.265625 C 315.707031 132.335938 317.824219 132.890625 319.960938 132.710938 C 325.375 132.253906 329.367188 127.460938 329.214844 122.09375 Z M 319.839844 128.449219 C 316.046875 129.203125 313.054688 125.585938 313.152344 122.09375 C 313.242188 118.96875 316.117188 116.695312 319.054688 116.613281 C 322.125 116.699219 324.695312 118.96875 324.957031 122.09375 C 325.230469 125.328125 322.871094 127.847656 319.839844 128.449219 Z M 319.839844 128.449219 " fill-opacity="1" fill-rule="nonzero"/></g><g fill="#ff7a50" fill-opacity="1"><g transform="translate(21.249046, 240.374123)"><g><path d="M 13.117188 -17.429688 C 7.589844 -17.429688 3.746094 -13.585938 3.746094 -8.058594 C 3.746094 -2.53125 7.589844 1.3125 13.117188 1.3125 C 18.644531 1.3125 22.488281 -2.53125 22.488281 -8.058594 C 22.488281 -13.585938 18.644531 -17.429688 13.117188 -17.429688 Z M 13.117188 -17.429688 "/></g></g></g><g fill="#252727" fill-opacity="1"><g transform="translate(40.534107, 240.374123)"><g><path d="M 54.0625 -25.671875 C 54.0625 -38.601562 45.628906 -51.347656 28.953125 -51.347656 C 12.273438 -51.347656 2.25 -39.445312 2.25 -24.828125 C 2.25 -7.214844 13.679688 1.3125 28.015625 1.3125 C 40.851562 1.3125 50.222656 -5.058594 53.125 -16.398438 L 36.542969 -16.398438 C 35.886719 -12.554688 32.980469 -10.121094 28.203125 -10.121094 C 23.425781 -10.121094 19.769531 -12.460938 18.925781 -20.800781 L 53.78125 -20.800781 C 53.96875 -22.488281 54.0625 -24.175781 54.0625 -25.671875 Z M 28.109375 -39.914062 C 32.605469 -39.914062 35.511719 -37.011719 36.449219 -31.109375 L 19.488281 -31.109375 C 20.613281 -37.292969 23.707031 -39.914062 28.109375 -39.914062 Z M 28.109375 -39.914062 "/></g></g></g><g fill="#252727" fill-opacity="1"><g transform="translate(91.223708, 240.374123)"><g><path d="M 21.550781 -68.867188 L 4.683594 -68.867188 L 4.683594 -17.707031 C 4.683594 -13.960938 4.683594 -11.429688 4.871094 -8.808594 C 5.246094 -2.15625 9.652344 0.9375 17.429688 0.9375 C 21.175781 0.9375 24.175781 0.75 27.265625 0.46875 L 27.265625 -10.960938 C 22.863281 -10.773438 22.019531 -11.429688 21.738281 -13.398438 C 21.550781 -14.617188 21.550781 -15.648438 21.550781 -17.988281 Z M 21.550781 -68.867188 "/></g></g></g><g fill="#252727" fill-opacity="1"><g transform="translate(114.178995, 240.374123)"><g><path d="M 54.0625 -25.671875 C 54.0625 -38.601562 45.628906 -51.347656 28.953125 -51.347656 C 12.273438 -51.347656 2.25 -39.445312 2.25 -24.828125 C 2.25 -7.214844 13.679688 1.3125 28.015625 1.3125 C 40.851562 1.3125 50.222656 -5.058594 53.125 -16.398438 L 36.542969 -16.398438 C 35.886719 -12.554688 32.980469 -10.121094 28.203125 -10.121094 C 23.425781 -10.121094 19.769531 -12.460938 18.925781 -20.800781 L 53.78125 -20.800781 C 53.96875 -22.488281 54.0625 -24.175781 54.0625 -25.671875 Z M 28.109375 -39.914062 C 32.605469 -39.914062 35.511719 -37.011719 36.449219 -31.109375 L 19.488281 -31.109375 C 20.613281 -37.292969 23.707031 -39.914062 28.109375 -39.914062 Z M 28.109375 -39.914062 "/></g></g></g><g fill="#252727" fill-opacity="1"><g transform="translate(164.868596, 240.374123)"><g><path d="M 57.71875 -50.035156 L 39.257812 -50.035156 L 29.046875 -13.398438 L 18.738281 -50.035156 L 0 -50.035156 L 19.769531 0 L 37.949219 0 Z M 57.71875 -50.035156 "/></g></g></g><g fill="#252727" fill-opacity="1"><g transform="translate(216.214074, 240.374123)"><g><path d="M 34.386719 0 L 50.878906 0 C 50.128906 -5.527344 49.941406 -8.902344 49.941406 -12.648438 L 49.941406 -26.703125 C 49.941406 -29.796875 49.847656 -32.699219 49.660156 -35.230469 C 48.910156 -44.320312 43.476562 -51.347656 27.640625 -51.347656 C 14.992188 -51.347656 4.589844 -44.695312 4.496094 -32.980469 L 20.425781 -33.074219 C 20.707031 -37.386719 22.957031 -39.914062 26.890625 -39.914062 C 30.546875 -39.914062 32.605469 -37.667969 32.886719 -35.136719 C 33.074219 -33.542969 33.074219 -32.511719 33.074219 -31.484375 L 33.074219 -30.734375 L 29.890625 -30.734375 C 12.929688 -30.734375 2.8125 -24.175781 2.8125 -13.492188 C 2.8125 -3.839844 10.585938 1.3125 18.832031 1.3125 C 23.425781 1.3125 27.640625 0.1875 31.203125 -2.0625 L 33.261719 -7.308594 Z M 25.765625 -10.121094 C 22.394531 -10.121094 20.050781 -11.804688 20.050781 -14.804688 C 20.050781 -19.769531 25.484375 -21.738281 33.074219 -21.175781 L 33.074219 -17.894531 C 33.074219 -12.648438 29.140625 -10.121094 25.765625 -10.121094 Z M 25.765625 -10.121094 "/></g></g></g><g fill="#252727" fill-opacity="1"><g transform="translate(265.59193, 240.374123)"><g><path d="M 25.296875 -39.164062 L 36.355469 -39.164062 L 36.355469 -49.660156 L 25.296875 -49.660156 L 25.296875 -62.589844 L 8.433594 -62.589844 L 8.433594 -49.660156 L 0.46875 -49.660156 L 0.46875 -39.164062 L 8.433594 -39.164062 L 8.433594 -18.269531 C 8.433594 -15.460938 8.433594 -13.117188 8.621094 -10.214844 C 9.183594 -2.53125 12.929688 1.3125 25.390625 1.3125 C 28.953125 1.3125 32.042969 1.03125 35.324219 0.46875 L 35.324219 -10.027344 C 27.359375 -9.652344 25.765625 -10.773438 25.390625 -15.835938 C 25.296875 -17.148438 25.296875 -19.019531 25.296875 -20.707031 Z M 25.296875 -39.164062 "/></g></g></g><g fill="#252727" fill-opacity="1"><g transform="translate(297.448421, 240.374123)"><g><path d="M 54.0625 -25.671875 C 54.0625 -38.601562 45.628906 -51.347656 28.953125 -51.347656 C 12.273438 -51.347656 2.25 -39.445312 2.25 -24.828125 C 2.25 -7.214844 13.679688 1.3125 28.015625 1.3125 C 40.851562 1.3125 50.222656 -5.058594 53.125 -16.398438 L 36.542969 -16.398438 C 35.886719 -12.554688 32.980469 -10.121094 28.203125 -10.121094 C 23.425781 -10.121094 19.769531 -12.460938 18.925781 -20.800781 L 53.78125 -20.800781 C 53.96875 -22.488281 54.0625 -24.175781 54.0625 -25.671875 Z M 28.109375 -39.914062 C 32.605469 -39.914062 35.511719 -37.011719 36.449219 -31.109375 L 19.488281 -31.109375 C 20.613281 -37.292969 23.707031 -39.914062 28.109375 -39.914062 Z M 28.109375 -39.914062 "/></g></g></g></svg>