<svg xmlns="http://www.w3.org/2000/svg" viewBox="0 0 500 500"><g id="freepik--background-complete--inject-36"><path d="M279.93,212.13c5.27,0,137-.92,174.15-.92,2.6,0-.69-4.5-2.13-4.82-4.57-1-9.33-1-14-1.53a45.79,45.79,0,0,1-13.33-3.34c-3.66-1.55-7.31-3.33-11.27-4-7.67-1.2-14.39,3-21.58,4.78a16.28,16.28,0,0,1-13.06-1.78c-3.32-2-6.34-4.38-9.82-6.14a53.86,53.86,0,0,0-43-2,50.33,50.33,0,0,0-9.41,4.82c-3.51,2.3-6.54,5.25-10.06,7.52-7.8,5.05-17.44,3.41-26,6.3C280,211.25,279.47,212.13,279.93,212.13Z" style="fill:#ebebeb"></path><path d="M272.36,65.56c7,0,124.37.77,131.75.54.53,0,.82-.8.29-1.06-4.65-2.3-9.93-1.84-14.76-3.47-2.84-1-4.59-2.82-6.56-5a13.64,13.64,0,0,0-6.11-4,12.93,12.93,0,0,0-6.65-.21c-2.39.57-4.45,1.93-6.73,2.79-5.64,2.13-11.12.11-15.14-4.06-3.33-3.44-6.59-6.69-11.1-8.54a14.74,14.74,0,0,0-11.77-.16c-4.3,1.95-7.26,5.87-11.3,8.23-4.8,2.8-10.53,2.14-15.83,3s-9.36,5.31-14,7.88a10,10,0,0,1-5.07,1.57c-1,0-2.05-.31-3.08-.44-1.6-.2-3.12-.15-4.19,1.18C271.85,64.18,271.9,65.56,272.36,65.56Z" style="fill:#ebebeb"></path><path d="M45.25,110.66c5.09,0,90.81.57,96.19.4.39,0,.6-.58.21-.78-3.39-1.68-7.24-1.34-10.77-2.53-2.08-.7-3.35-2.06-4.8-3.61a9.81,9.81,0,0,0-4.46-2.91,9.39,9.39,0,0,0-4.85-.16,42,42,0,0,0-4.91,2c-4.12,1.56-8.12.08-11.06-3-2.42-2.51-4.81-4.88-8.1-6.23a10.74,10.74,0,0,0-8.59-.12c-3.14,1.42-5.3,4.29-8.25,6-3.5,2-7.69,1.56-11.56,2.18s-6.83,3.87-10.22,5.75a7.21,7.21,0,0,1-3.7,1.14c-.76,0-1.5-.22-2.25-.31a3.07,3.07,0,0,0-3.06.86C44.88,109.66,44.92,110.66,45.25,110.66Z" style="fill:#ebebeb"></path><path d="M355.93,157.36c5.09,0,90.8.56,96.19.39.39,0,.59-.58.21-.77-3.4-1.68-7.25-1.34-10.78-2.53-2.07-.7-3.35-2.06-4.79-3.62a10,10,0,0,0-4.46-2.91,9.43,9.43,0,0,0-4.86-.15,40.87,40.87,0,0,0-4.9,2c-4.12,1.55-8.12.08-11.06-3-2.43-2.51-4.81-4.88-8.11-6.24a10.76,10.76,0,0,0-8.58-.11c-3.15,1.42-5.3,4.28-8.26,6-3.5,2-7.68,1.56-11.55,2.18s-6.84,3.87-10.23,5.75a7.27,7.27,0,0,1-3.69,1.14,21,21,0,0,1-2.25-.32,3.09,3.09,0,0,0-3.07.87C355.55,156.35,355.59,157.36,355.93,157.36Z" style="fill:#ebebeb"></path><path d="M166.88,280c5.09,0,90.81.56,96.19.39.39,0,.6-.58.21-.77-3.39-1.68-7.25-1.34-10.77-2.53-2.08-.7-3.36-2.06-4.8-3.62a9.89,9.89,0,0,0-4.46-2.91,9.39,9.39,0,0,0-4.85-.15,40.34,40.34,0,0,0-4.91,2c-4.12,1.55-8.12.07-11.06-3-2.42-2.51-4.81-4.88-8.1-6.24a10.78,10.78,0,0,0-8.59-.11c-3.14,1.42-5.3,4.28-8.25,6-3.51,2-7.69,1.56-11.56,2.18s-6.83,3.87-10.22,5.74a7.22,7.22,0,0,1-3.7,1.15,21.37,21.37,0,0,1-2.25-.32,3.09,3.09,0,0,0-3.06.86C166.51,279,166.55,280,166.88,280Z" style="fill:#ebebeb"></path><path d="M103.13,164.05c.1.29,135.09,0,133.39,0-.78,0,1.18-1.16.42-1.54-4.4-2.18-9.2-2.24-14-2.68a21.51,21.51,0,0,1-8.17-2c-2.55-1.33-4.13-3.65-5.94-5.78a25.36,25.36,0,0,0-23.05-8.74c-9.6,1.51-17.17,8.82-26.78,10.16-5.78.81-11.24-1.42-16.88-2.21a20.63,20.63,0,0,0-12.68,2.32c-3,1.51-5.86,2.78-9.3,3-2.65.18-5.3-.12-8-.15a17.78,17.78,0,0,0-11.69,4.68C100.08,161.52,98.72,164.05,103.13,164.05Z" style="fill:#ebebeb"></path><rect x="161.15" y="186.95" width="51.8" height="271.51" transform="translate(374.1 645.4) rotate(180)" style="fill:#dbdbdb"></rect><rect x="194.84" y="195.77" width="10.07" height="10.37" transform="translate(399.75 401.9) rotate(180)" style="fill:#ebebeb"></rect><rect x="181.96" y="195.77" width="10.07" height="10.37" transform="translate(373.99 401.9) rotate(180)" style="fill:#ebebeb"></rect><rect x="194.84" y="213.37" width="10.07" height="10.37" transform="translate(399.75 437.1) rotate(180)" style="fill:#ebebeb"></rect><rect x="181.96" y="213.37" width="10.07" height="10.37" transform="translate(373.99 437.1) rotate(180)" style="fill:#ebebeb"></rect><rect x="194.84" y="230.97" width="10.07" height="10.37" transform="translate(399.75 472.3) rotate(180)" style="fill:#ebebeb"></rect><rect x="181.96" y="230.97" width="10.07" height="10.37" transform="translate(373.99 472.3) rotate(180)" style="fill:#ebebeb"></rect><rect x="194.84" y="248.57" width="10.07" height="10.37" transform="translate(399.75 507.5) rotate(180)" style="fill:#ebebeb"></rect><rect x="181.96" y="248.57" width="10.07" height="10.37" transform="translate(373.99 507.5) rotate(180)" style="fill:#ebebeb"></rect><rect x="194.84" y="266.17" width="10.07" height="10.37" transform="translate(399.75 542.71) rotate(180)" style="fill:#ebebeb"></rect><rect x="181.96" y="266.17" width="10.07" height="10.37" transform="translate(373.99 542.71) rotate(180)" style="fill:#ebebeb"></rect><rect x="194.84" y="283.77" width="10.07" height="10.37" transform="translate(399.75 577.91) rotate(180)" style="fill:#ebebeb"></rect><rect x="181.96" y="283.77" width="10.07" height="10.37" transform="translate(373.99 577.91) rotate(180)" style="fill:#ebebeb"></rect><rect x="194.84" y="301.37" width="10.07" height="10.37" transform="translate(399.75 613.11) rotate(180)" style="fill:#ebebeb"></rect><rect x="181.96" y="301.37" width="10.07" height="10.37" transform="translate(373.99 613.11) rotate(180)" style="fill:#ebebeb"></rect><rect x="194.84" y="318.97" width="10.07" height="10.37" transform="translate(399.75 648.31) rotate(180)" style="fill:#ebebeb"></rect><rect x="181.96" y="318.97" width="10.07" height="10.37" transform="translate(373.99 648.31) rotate(180)" style="fill:#ebebeb"></rect><rect x="194.84" y="336.57" width="10.07" height="10.37" transform="translate(399.75 683.51) rotate(180)" style="fill:#ebebeb"></rect><rect x="181.96" y="336.57" width="10.07" height="10.37" transform="translate(373.99 683.51) rotate(180)" style="fill:#ebebeb"></rect><rect x="194.84" y="354.17" width="10.07" height="10.37" transform="translate(399.75 718.72) rotate(180)" style="fill:#ebebeb"></rect><rect x="181.96" y="354.17" width="10.07" height="10.37" transform="translate(373.99 718.72) rotate(180)" style="fill:#ebebeb"></rect><rect x="194.84" y="371.78" width="10.07" height="10.37" transform="translate(399.75 753.92) rotate(180)" style="fill:#ebebeb"></rect><rect x="181.96" y="371.78" width="10.07" height="10.37" transform="translate(373.99 753.92) rotate(180)" style="fill:#ebebeb"></rect><rect x="194.84" y="389.38" width="10.07" height="10.37" transform="translate(399.75 789.12) rotate(180)" style="fill:#ebebeb"></rect><rect x="181.96" y="389.38" width="10.07" height="10.37" transform="translate(373.99 789.12) rotate(180)" style="fill:#ebebeb"></rect><rect x="194.84" y="406.98" width="10.07" height="10.37" transform="translate(399.75 824.32) rotate(180)" style="fill:#ebebeb"></rect><rect x="181.96" y="406.98" width="10.07" height="10.37" transform="translate(373.99 824.32) rotate(180)" style="fill:#ebebeb"></rect><rect x="194.84" y="424.58" width="10.07" height="10.37" transform="translate(399.75 859.53) rotate(180)" style="fill:#ebebeb"></rect><rect x="169.19" y="424.58" width="10.07" height="10.37" style="fill:#ebebeb"></rect><rect x="169.19" y="406.98" width="10.07" height="10.37" style="fill:#ebebeb"></rect><rect x="169.19" y="389.38" width="10.07" height="10.37" style="fill:#ebebeb"></rect><rect x="169.19" y="371.78" width="10.07" height="10.37" style="fill:#ebebeb"></rect><rect x="169.19" y="354.17" width="10.07" height="10.37" style="fill:#ebebeb"></rect><rect x="169.19" y="336.57" width="10.07" height="10.37" style="fill:#ebebeb"></rect><rect x="169.19" y="318.97" width="10.07" height="10.37" style="fill:#ebebeb"></rect><rect x="169.19" y="301.37" width="10.07" height="10.37" style="fill:#ebebeb"></rect><rect x="169.19" y="283.77" width="10.07" height="10.37" style="fill:#ebebeb"></rect><rect x="169.19" y="266.17" width="10.07" height="10.37" style="fill:#ebebeb"></rect><rect x="169.19" y="248.57" width="10.07" height="10.37" style="fill:#ebebeb"></rect><rect x="169.19" y="230.97" width="10.07" height="10.37" style="fill:#ebebeb"></rect><rect x="169.19" y="213.37" width="10.07" height="10.37" style="fill:#ebebeb"></rect><rect x="169.19" y="195.77" width="10.07" height="10.37" style="fill:#ebebeb"></rect><rect x="181.96" y="424.58" width="10.07" height="10.37" transform="translate(373.99 859.53) rotate(180)" style="fill:#ebebeb"></rect><rect x="120.32" y="186.95" width="40.84" height="271.51" transform="translate(281.47 645.4) rotate(180)" style="fill:#a6a6a6"></rect><rect x="124.53" y="424.58" width="8.31" height="10.37" style="fill:#c7c7c7"></rect><rect x="135.16" y="424.58" width="8.31" height="10.37" style="fill:#c7c7c7"></rect><rect x="124.53" y="406.98" width="8.31" height="10.37" style="fill:#c7c7c7"></rect><rect x="135.16" y="406.98" width="8.31" height="10.37" style="fill:#c7c7c7"></rect><rect x="124.53" y="389.38" width="8.31" height="10.37" style="fill:#c7c7c7"></rect><rect x="135.16" y="389.38" width="8.31" height="10.37" style="fill:#c7c7c7"></rect><rect x="124.53" y="371.78" width="8.31" height="10.37" style="fill:#c7c7c7"></rect><rect x="135.16" y="371.78" width="8.31" height="10.37" style="fill:#c7c7c7"></rect><rect x="124.53" y="354.17" width="8.31" height="10.37" style="fill:#c7c7c7"></rect><rect x="135.16" y="354.17" width="8.31" height="10.37" style="fill:#c7c7c7"></rect><rect x="124.53" y="336.57" width="8.31" height="10.37" style="fill:#c7c7c7"></rect><rect x="135.16" y="336.57" width="8.31" height="10.37" style="fill:#c7c7c7"></rect><rect x="124.53" y="318.97" width="8.31" height="10.37" style="fill:#c7c7c7"></rect><rect x="135.16" y="318.97" width="8.31" height="10.37" style="fill:#c7c7c7"></rect><rect x="124.53" y="301.37" width="8.31" height="10.37" style="fill:#c7c7c7"></rect><rect x="135.16" y="301.37" width="8.31" height="10.37" style="fill:#c7c7c7"></rect><rect x="124.53" y="283.77" width="8.31" height="10.37" style="fill:#c7c7c7"></rect><rect x="135.16" y="283.77" width="8.31" height="10.37" style="fill:#c7c7c7"></rect><rect x="124.53" y="266.17" width="8.31" height="10.37" style="fill:#c7c7c7"></rect><rect x="135.16" y="266.17" width="8.31" height="10.37" style="fill:#c7c7c7"></rect><rect x="124.53" y="248.57" width="8.31" height="10.37" style="fill:#c7c7c7"></rect><rect x="135.16" y="248.57" width="8.31" height="10.37" style="fill:#c7c7c7"></rect><rect x="124.53" y="230.97" width="8.31" height="10.37" style="fill:#c7c7c7"></rect><rect x="135.16" y="230.97" width="8.31" height="10.37" style="fill:#c7c7c7"></rect><rect x="124.53" y="213.37" width="8.31" height="10.37" style="fill:#c7c7c7"></rect><rect x="135.16" y="213.37" width="8.31" height="10.37" style="fill:#c7c7c7"></rect><rect x="124.53" y="195.77" width="8.31" height="10.37" style="fill:#c7c7c7"></rect><rect x="145.71" y="195.77" width="8.31" height="10.37" transform="translate(299.73 401.9) rotate(180)" style="fill:#c7c7c7"></rect><rect x="145.71" y="213.37" width="8.31" height="10.37" transform="translate(299.73 437.1) rotate(180)" style="fill:#c7c7c7"></rect><rect x="145.71" y="230.97" width="8.31" height="10.37" transform="translate(299.73 472.3) rotate(180)" style="fill:#c7c7c7"></rect><rect x="145.71" y="248.57" width="8.31" height="10.37" transform="translate(299.73 507.5) rotate(180)" style="fill:#c7c7c7"></rect><rect x="145.71" y="266.17" width="8.31" height="10.37" transform="translate(299.73 542.71) rotate(180)" style="fill:#c7c7c7"></rect><rect x="145.71" y="283.77" width="8.31" height="10.37" transform="translate(299.73 577.91) rotate(180)" style="fill:#c7c7c7"></rect><rect x="145.71" y="301.37" width="8.31" height="10.37" transform="translate(299.73 613.11) rotate(180)" style="fill:#c7c7c7"></rect><rect x="145.71" y="318.97" width="8.31" height="10.37" transform="translate(299.73 648.31) rotate(180)" style="fill:#c7c7c7"></rect><rect x="145.71" y="336.57" width="8.31" height="10.37" transform="translate(299.73 683.51) rotate(180)" style="fill:#c7c7c7"></rect><rect x="145.71" y="354.17" width="8.31" height="10.37" transform="translate(299.73 718.72) rotate(180)" style="fill:#c7c7c7"></rect><rect x="145.71" y="371.78" width="8.31" height="10.37" transform="translate(299.73 753.92) rotate(180)" style="fill:#c7c7c7"></rect><rect x="145.71" y="389.38" width="8.31" height="10.37" transform="translate(299.73 789.12) rotate(180)" style="fill:#c7c7c7"></rect><rect x="145.71" y="406.98" width="8.31" height="10.37" transform="translate(299.73 824.32) rotate(180)" style="fill:#c7c7c7"></rect><rect x="145.71" y="424.58" width="8.31" height="10.37" transform="translate(299.73 859.53) rotate(180)" style="fill:#c7c7c7"></rect><rect x="135.16" y="195.77" width="8.31" height="10.37" style="fill:#c7c7c7"></rect><rect x="396.7" y="181.02" width="54.03" height="277.43" style="fill:#ebebeb"></rect><rect x="396.7" y="175.5" width="55.33" height="5.52" transform="translate(848.74 356.52) rotate(180)" style="fill:#c7c7c7"></rect><rect x="440.38" y="189.16" width="5.47" height="269.29" style="fill:#fff"></rect><rect x="430.68" y="189.16" width="5.47" height="269.29" style="fill:#fff"></rect><rect x="420.98" y="189.16" width="5.47" height="269.29" style="fill:#fff"></rect><rect x="411.29" y="189.16" width="5.47" height="269.29" style="fill:#fff"></rect><rect x="401.59" y="189.16" width="5.47" height="269.29" style="fill:#fff"></rect><rect x="440.38" y="196.14" width="5.47" height="10.91" transform="translate(886.23 403.2) rotate(180)" style="fill:#ebebeb"></rect><rect x="430.68" y="196.14" width="5.47" height="10.91" transform="translate(866.83 403.2) rotate(180)" style="fill:#ebebeb"></rect><rect x="420.98" y="196.14" width="5.47" height="10.91" transform="translate(847.44 403.2) rotate(180)" style="fill:#ebebeb"></rect><rect x="411.29" y="196.14" width="5.47" height="10.91" transform="translate(828.04 403.2) rotate(180)" style="fill:#ebebeb"></rect><rect x="401.59" y="196.14" width="5.47" height="10.91" transform="translate(808.65 403.2) rotate(180)" style="fill:#ebebeb"></rect><rect x="440.38" y="213.87" width="5.47" height="10.91" transform="translate(886.23 438.64) rotate(180)" style="fill:#ebebeb"></rect><rect x="430.68" y="213.87" width="5.47" height="10.91" transform="translate(866.83 438.64) rotate(180)" style="fill:#ebebeb"></rect><rect x="420.98" y="213.87" width="5.47" height="10.91" transform="translate(847.44 438.64) rotate(180)" style="fill:#ebebeb"></rect><rect x="411.29" y="213.87" width="5.47" height="10.91" transform="translate(828.04 438.64) rotate(180)" style="fill:#ebebeb"></rect><rect x="401.59" y="213.87" width="5.47" height="10.91" transform="translate(808.65 438.64) rotate(180)" style="fill:#ebebeb"></rect><rect x="440.38" y="231.59" width="5.47" height="10.91" transform="translate(886.23 474.09) rotate(180)" style="fill:#ebebeb"></rect><rect x="430.68" y="231.59" width="5.47" height="10.91" transform="translate(866.83 474.09) rotate(180)" style="fill:#ebebeb"></rect><rect x="420.98" y="231.59" width="5.47" height="10.91" transform="translate(847.44 474.09) rotate(180)" style="fill:#ebebeb"></rect><rect x="411.29" y="231.59" width="5.47" height="10.91" transform="translate(828.04 474.09) rotate(180)" style="fill:#ebebeb"></rect><rect x="401.59" y="231.59" width="5.47" height="10.91" transform="translate(808.65 474.09) rotate(180)" style="fill:#ebebeb"></rect><rect x="440.38" y="249.32" width="5.47" height="10.91" transform="translate(886.23 509.54) rotate(180)" style="fill:#ebebeb"></rect><rect x="430.68" y="249.32" width="5.47" height="10.91" transform="translate(866.83 509.54) rotate(180)" style="fill:#ebebeb"></rect><rect x="420.98" y="249.32" width="5.47" height="10.91" transform="translate(847.44 509.54) rotate(180)" style="fill:#ebebeb"></rect><rect x="411.29" y="249.32" width="5.47" height="10.91" transform="translate(828.04 509.54) rotate(180)" style="fill:#ebebeb"></rect><rect x="401.59" y="249.32" width="5.47" height="10.91" transform="translate(808.65 509.54) rotate(180)" style="fill:#ebebeb"></rect><rect x="440.38" y="267.04" width="5.47" height="10.91" transform="translate(886.23 544.99) rotate(180)" style="fill:#ebebeb"></rect><rect x="430.68" y="267.04" width="5.47" height="10.91" transform="translate(866.83 544.99) rotate(180)" style="fill:#ebebeb"></rect><rect x="420.98" y="267.04" width="5.47" height="10.91" transform="translate(847.44 544.99) rotate(180)" style="fill:#ebebeb"></rect><rect x="411.29" y="267.04" width="5.47" height="10.91" transform="translate(828.04 544.99) rotate(180)" style="fill:#ebebeb"></rect><rect x="401.59" y="267.04" width="5.47" height="10.91" transform="translate(808.65 544.99) rotate(180)" style="fill:#ebebeb"></rect><rect x="440.38" y="284.77" width="5.47" height="10.91" transform="translate(886.23 580.44) rotate(180)" style="fill:#ebebeb"></rect><rect x="430.68" y="284.77" width="5.47" height="10.91" transform="translate(866.83 580.44) rotate(180)" style="fill:#ebebeb"></rect><rect x="420.98" y="284.77" width="5.47" height="10.91" transform="translate(847.44 580.44) rotate(180)" style="fill:#ebebeb"></rect><rect x="411.29" y="284.77" width="5.47" height="10.91" transform="translate(828.04 580.44) rotate(180)" style="fill:#ebebeb"></rect><rect x="401.59" y="284.77" width="5.47" height="10.91" transform="translate(808.65 580.44) rotate(180)" style="fill:#ebebeb"></rect><rect x="440.38" y="302.49" width="5.47" height="10.91" transform="translate(886.23 615.88) rotate(180)" style="fill:#ebebeb"></rect><rect x="430.68" y="302.49" width="5.47" height="10.91" transform="translate(866.83 615.88) rotate(180)" style="fill:#ebebeb"></rect><rect x="420.98" y="302.49" width="5.47" height="10.91" transform="translate(847.44 615.88) rotate(180)" style="fill:#ebebeb"></rect><rect x="411.29" y="302.49" width="5.47" height="10.91" transform="translate(828.04 615.88) rotate(180)" style="fill:#ebebeb"></rect><rect x="401.59" y="302.49" width="5.47" height="10.91" transform="translate(808.65 615.88) rotate(180)" style="fill:#ebebeb"></rect><rect x="440.38" y="320.21" width="5.47" height="10.91" transform="translate(886.23 651.33) rotate(180)" style="fill:#ebebeb"></rect><rect x="430.68" y="320.21" width="5.47" height="10.91" transform="translate(866.83 651.33) rotate(180)" style="fill:#ebebeb"></rect><rect x="420.98" y="320.21" width="5.47" height="10.91" transform="translate(847.44 651.33) rotate(180)" style="fill:#ebebeb"></rect><rect x="411.29" y="320.21" width="5.47" height="10.91" transform="translate(828.04 651.33) rotate(180)" style="fill:#ebebeb"></rect><rect x="401.59" y="320.21" width="5.47" height="10.91" transform="translate(808.65 651.33) rotate(180)" style="fill:#ebebeb"></rect><rect x="440.38" y="337.94" width="5.47" height="10.91" transform="translate(886.23 686.78) rotate(180)" style="fill:#ebebeb"></rect><rect x="430.68" y="337.94" width="5.47" height="10.91" transform="translate(866.83 686.78) rotate(180)" style="fill:#ebebeb"></rect><rect x="420.98" y="337.94" width="5.47" height="10.91" transform="translate(847.44 686.78) rotate(180)" style="fill:#ebebeb"></rect><rect x="411.29" y="337.94" width="5.47" height="10.91" transform="translate(828.04 686.78) rotate(180)" style="fill:#ebebeb"></rect><rect x="401.59" y="337.94" width="5.47" height="10.91" transform="translate(808.65 686.78) rotate(180)" style="fill:#ebebeb"></rect><rect x="440.38" y="355.66" width="5.47" height="10.91" transform="translate(886.23 722.23) rotate(180)" style="fill:#ebebeb"></rect><rect x="430.68" y="355.66" width="5.47" height="10.91" transform="translate(866.83 722.23) rotate(180)" style="fill:#ebebeb"></rect><rect x="420.98" y="355.66" width="5.47" height="10.91" transform="translate(847.44 722.23) rotate(180)" style="fill:#ebebeb"></rect><rect x="411.29" y="355.66" width="5.47" height="10.91" transform="translate(828.04 722.23) rotate(180)" style="fill:#ebebeb"></rect><rect x="401.59" y="355.66" width="5.47" height="10.91" transform="translate(808.65 722.23) rotate(180)" style="fill:#ebebeb"></rect><rect x="440.38" y="373.39" width="5.47" height="10.91" transform="translate(886.23 757.68) rotate(180)" style="fill:#ebebeb"></rect><rect x="430.68" y="373.39" width="5.47" height="10.91" transform="translate(866.83 757.68) rotate(180)" style="fill:#ebebeb"></rect><rect x="420.98" y="373.39" width="5.47" height="10.91" transform="translate(847.44 757.68) rotate(180)" style="fill:#ebebeb"></rect><rect x="411.29" y="373.39" width="5.47" height="10.91" transform="translate(828.04 757.68) rotate(180)" style="fill:#ebebeb"></rect><rect x="401.59" y="373.39" width="5.47" height="10.91" transform="translate(808.65 757.68) rotate(180)" style="fill:#ebebeb"></rect><rect x="440.38" y="391.11" width="5.47" height="10.91" transform="translate(886.23 793.13) rotate(180)" style="fill:#ebebeb"></rect><rect x="430.68" y="391.11" width="5.47" height="10.91" transform="translate(866.83 793.13) rotate(180)" style="fill:#ebebeb"></rect><rect x="420.98" y="391.11" width="5.47" height="10.91" transform="translate(847.44 793.13) rotate(180)" style="fill:#ebebeb"></rect><rect x="411.29" y="391.11" width="5.47" height="10.91" transform="translate(828.04 793.13) rotate(180)" style="fill:#ebebeb"></rect><rect x="401.59" y="391.11" width="5.47" height="10.91" transform="translate(808.65 793.13) rotate(180)" style="fill:#ebebeb"></rect><rect x="440.38" y="408.83" width="5.47" height="10.91" transform="translate(886.23 828.57) rotate(180)" style="fill:#ebebeb"></rect><rect x="430.68" y="408.83" width="5.47" height="10.91" transform="translate(866.83 828.57) rotate(180)" style="fill:#ebebeb"></rect><rect x="420.98" y="408.83" width="5.47" height="10.91" transform="translate(847.44 828.57) rotate(180)" style="fill:#ebebeb"></rect><rect x="411.29" y="408.83" width="5.47" height="10.91" transform="translate(828.04 828.57) rotate(180)" style="fill:#ebebeb"></rect><rect x="401.59" y="408.83" width="5.47" height="10.91" transform="translate(808.65 828.57) rotate(180)" style="fill:#ebebeb"></rect><rect x="440.38" y="426.56" width="5.47" height="31.9" style="fill:#ebebeb"></rect><rect x="430.68" y="426.56" width="5.47" height="31.9" style="fill:#ebebeb"></rect><rect x="420.98" y="426.56" width="5.47" height="31.9" style="fill:#ebebeb"></rect><rect x="411.29" y="426.56" width="5.47" height="31.9" style="fill:#ebebeb"></rect><rect x="401.59" y="426.56" width="5.47" height="31.9" style="fill:#ebebeb"></rect><rect x="362.01" y="181.02" width="34.69" height="277.43" style="fill:#dbdbdb"></rect><rect x="360.51" y="175.5" width="36.19" height="5.52" transform="translate(757.21 356.52) rotate(180)" style="fill:#c7c7c7"></rect><rect x="386.34" y="189.16" width="5.47" height="269.29" style="fill:#c7c7c7"></rect><rect x="376.65" y="189.16" width="5.47" height="269.29" style="fill:#c7c7c7"></rect><rect x="366.95" y="189.16" width="5.47" height="269.29" style="fill:#c7c7c7"></rect><rect x="386.34" y="196.14" width="5.47" height="10.91" transform="translate(778.16 403.2) rotate(180)" style="fill:#dbdbdb"></rect><rect x="376.65" y="196.14" width="5.47" height="10.91" transform="translate(758.77 403.2) rotate(180)" style="fill:#dbdbdb"></rect><rect x="366.95" y="196.14" width="5.47" height="10.91" transform="translate(739.37 403.2) rotate(180)" style="fill:#dbdbdb"></rect><rect x="386.34" y="213.87" width="5.47" height="10.91" transform="translate(778.16 438.64) rotate(180)" style="fill:#dbdbdb"></rect><rect x="376.65" y="213.87" width="5.47" height="10.91" transform="translate(758.77 438.64) rotate(180)" style="fill:#dbdbdb"></rect><rect x="366.95" y="213.87" width="5.47" height="10.91" transform="translate(739.37 438.64) rotate(180)" style="fill:#dbdbdb"></rect><rect x="386.34" y="231.59" width="5.47" height="10.91" transform="translate(778.16 474.09) rotate(180)" style="fill:#dbdbdb"></rect><rect x="376.65" y="231.59" width="5.47" height="10.91" transform="translate(758.77 474.09) rotate(180)" style="fill:#dbdbdb"></rect><rect x="366.95" y="231.59" width="5.47" height="10.91" transform="translate(739.37 474.09) rotate(180)" style="fill:#dbdbdb"></rect><rect x="386.34" y="249.32" width="5.47" height="10.91" transform="translate(778.16 509.54) rotate(180)" style="fill:#dbdbdb"></rect><rect x="376.65" y="249.32" width="5.47" height="10.91" transform="translate(758.77 509.54) rotate(180)" style="fill:#dbdbdb"></rect><rect x="366.95" y="249.32" width="5.47" height="10.91" transform="translate(739.37 509.54) rotate(180)" style="fill:#dbdbdb"></rect><rect x="386.34" y="267.04" width="5.47" height="10.91" transform="translate(778.16 544.99) rotate(180)" style="fill:#dbdbdb"></rect><rect x="376.65" y="267.04" width="5.47" height="10.91" transform="translate(758.77 544.99) rotate(180)" style="fill:#dbdbdb"></rect><rect x="366.95" y="267.04" width="5.47" height="10.91" transform="translate(739.37 544.99) rotate(180)" style="fill:#dbdbdb"></rect><rect x="386.34" y="284.77" width="5.47" height="10.91" transform="translate(778.16 580.44) rotate(180)" style="fill:#dbdbdb"></rect><rect x="376.65" y="284.77" width="5.47" height="10.91" transform="translate(758.77 580.44) rotate(180)" style="fill:#dbdbdb"></rect><rect x="366.95" y="284.77" width="5.47" height="10.91" transform="translate(739.37 580.44) rotate(180)" style="fill:#dbdbdb"></rect><rect x="386.34" y="302.49" width="5.47" height="10.91" transform="translate(778.16 615.88) rotate(180)" style="fill:#dbdbdb"></rect><rect x="376.65" y="302.49" width="5.47" height="10.91" transform="translate(758.77 615.88) rotate(180)" style="fill:#dbdbdb"></rect><rect x="366.95" y="302.49" width="5.47" height="10.91" transform="translate(739.37 615.88) rotate(180)" style="fill:#dbdbdb"></rect><rect x="386.34" y="320.21" width="5.47" height="10.91" transform="translate(778.16 651.33) rotate(180)" style="fill:#dbdbdb"></rect><rect x="376.65" y="320.21" width="5.47" height="10.91" transform="translate(758.77 651.33) rotate(180)" style="fill:#dbdbdb"></rect><rect x="366.95" y="320.21" width="5.47" height="10.91" transform="translate(739.37 651.33) rotate(180)" style="fill:#dbdbdb"></rect><rect x="386.34" y="337.94" width="5.47" height="10.91" transform="translate(778.16 686.78) rotate(180)" style="fill:#dbdbdb"></rect><rect x="376.65" y="337.94" width="5.47" height="10.91" transform="translate(758.77 686.78) rotate(180)" style="fill:#dbdbdb"></rect><rect x="366.95" y="337.94" width="5.47" height="10.91" transform="translate(739.37 686.78) rotate(180)" style="fill:#dbdbdb"></rect><rect x="386.34" y="355.66" width="5.47" height="10.91" transform="translate(778.16 722.23) rotate(180)" style="fill:#dbdbdb"></rect><rect x="376.65" y="355.66" width="5.47" height="10.91" transform="translate(758.77 722.23) rotate(180)" style="fill:#dbdbdb"></rect><rect x="366.95" y="355.66" width="5.47" height="10.91" transform="translate(739.37 722.23) rotate(180)" style="fill:#dbdbdb"></rect><rect x="386.34" y="373.39" width="5.47" height="10.91" transform="translate(778.16 757.68) rotate(180)" style="fill:#dbdbdb"></rect><rect x="376.65" y="373.39" width="5.47" height="10.91" transform="translate(758.77 757.68) rotate(180)" style="fill:#dbdbdb"></rect><rect x="366.95" y="373.39" width="5.47" height="10.91" transform="translate(739.37 757.68) rotate(180)" style="fill:#dbdbdb"></rect><rect x="386.34" y="391.11" width="5.47" height="10.91" transform="translate(778.16 793.13) rotate(180)" style="fill:#dbdbdb"></rect><rect x="376.65" y="391.11" width="5.47" height="10.91" transform="translate(758.77 793.13) rotate(180)" style="fill:#dbdbdb"></rect><rect x="366.95" y="391.11" width="5.47" height="10.91" transform="translate(739.37 793.13) rotate(180)" style="fill:#dbdbdb"></rect><rect x="386.34" y="408.83" width="5.47" height="10.91" transform="translate(778.16 828.57) rotate(180)" style="fill:#dbdbdb"></rect><rect x="376.65" y="408.83" width="5.47" height="10.91" transform="translate(758.77 828.57) rotate(180)" style="fill:#dbdbdb"></rect><rect x="366.95" y="408.83" width="5.47" height="10.91" transform="translate(739.37 828.57) rotate(180)" style="fill:#dbdbdb"></rect><rect x="386.34" y="426.56" width="5.47" height="31.9" style="fill:#dbdbdb"></rect><rect x="376.65" y="426.56" width="5.47" height="31.9" style="fill:#dbdbdb"></rect><rect x="366.95" y="426.56" width="5.47" height="31.9" style="fill:#dbdbdb"></rect><rect x="89.97" y="267.39" width="27.37" height="32.33" transform="translate(207.3 567.11) rotate(180)" style="fill:#dbdbdb"></rect><rect x="72.61" y="267.39" width="17.35" height="33.52" transform="translate(162.58 568.3) rotate(180)" style="fill:#c7c7c7"></rect><rect x="71.46" y="281.67" width="17.22" height="19.24" transform="translate(160.14 582.57) rotate(180)" style="fill:#dbdbdb"></rect><rect x="60.72" y="281.67" width="10.74" height="19.24" transform="translate(132.17 582.57) rotate(180)" style="fill:#c7c7c7"></rect><rect x="83.58" y="297.62" width="44.25" height="160.84" transform="translate(211.41 756.07) rotate(180)" style="fill:#ebebeb"></rect><rect x="108.86" y="304.53" width="13.92" height="5.69" transform="translate(231.63 614.75) rotate(180)" style="fill:#fff"></rect><rect x="91.05" y="304.53" width="13.92" height="5.69" transform="translate(196.02 614.75) rotate(180)" style="fill:#fff"></rect><rect x="108.86" y="314.19" width="13.92" height="5.69" transform="translate(231.63 634.06) rotate(180)" style="fill:#fff"></rect><rect x="91.05" y="314.19" width="13.92" height="5.69" transform="translate(196.02 634.06) rotate(180)" style="fill:#fff"></rect><rect x="108.86" y="323.84" width="13.92" height="5.69" transform="translate(231.63 653.37) rotate(180)" style="fill:#fff"></rect><rect x="91.05" y="323.84" width="13.92" height="5.69" transform="translate(196.02 653.37) rotate(180)" style="fill:#fff"></rect><rect x="108.86" y="333.49" width="13.92" height="5.69" transform="translate(231.63 672.68) rotate(180)" style="fill:#fff"></rect><rect x="91.05" y="333.49" width="13.92" height="5.69" transform="translate(196.02 672.68) rotate(180)" style="fill:#fff"></rect><rect x="108.86" y="343.15" width="13.92" height="5.69" transform="translate(231.63 691.98) rotate(180)" style="fill:#fff"></rect><rect x="91.05" y="343.15" width="13.92" height="5.69" transform="translate(196.02 691.98) rotate(180)" style="fill:#fff"></rect><rect x="108.86" y="352.8" width="13.92" height="5.69" transform="translate(231.63 711.29) rotate(180)" style="fill:#fff"></rect><rect x="91.05" y="352.8" width="13.92" height="5.69" transform="translate(196.02 711.29) rotate(180)" style="fill:#fff"></rect><rect x="108.86" y="362.46" width="13.92" height="5.69" transform="translate(231.63 730.6) rotate(180)" style="fill:#fff"></rect><rect x="91.05" y="362.46" width="13.92" height="5.69" transform="translate(196.02 730.6) rotate(180)" style="fill:#fff"></rect><rect x="108.86" y="372.11" width="13.92" height="5.69" transform="translate(231.63 749.91) rotate(180)" style="fill:#fff"></rect><rect x="91.05" y="372.11" width="13.92" height="5.69" transform="translate(196.02 749.91) rotate(180)" style="fill:#fff"></rect><rect x="108.86" y="381.76" width="13.92" height="5.69" transform="translate(231.63 769.21) rotate(180)" style="fill:#fff"></rect><rect x="91.05" y="381.76" width="13.92" height="5.69" transform="translate(196.02 769.21) rotate(180)" style="fill:#fff"></rect><rect x="108.86" y="391.42" width="13.92" height="5.69" transform="translate(231.63 788.52) rotate(180)" style="fill:#fff"></rect><rect x="91.05" y="391.42" width="13.92" height="5.69" transform="translate(196.02 788.52) rotate(180)" style="fill:#fff"></rect><rect x="108.86" y="401.07" width="13.92" height="5.69" transform="translate(231.63 807.83) rotate(180)" style="fill:#fff"></rect><rect x="91.05" y="401.07" width="13.92" height="5.69" transform="translate(196.02 807.83) rotate(180)" style="fill:#fff"></rect><rect x="108.86" y="410.73" width="13.92" height="5.69" transform="translate(231.63 827.14) rotate(180)" style="fill:#fff"></rect><rect x="91.05" y="410.73" width="13.92" height="5.69" transform="translate(196.02 827.14) rotate(180)" style="fill:#fff"></rect><rect x="108.86" y="420.38" width="13.92" height="5.69" transform="translate(231.63 846.45) rotate(180)" style="fill:#fff"></rect><rect x="91.05" y="420.38" width="13.92" height="5.69" transform="translate(196.02 846.45) rotate(180)" style="fill:#fff"></rect><rect x="108.86" y="430.03" width="13.92" height="5.69" transform="translate(231.63 865.75) rotate(180)" style="fill:#fff"></rect><rect x="91.05" y="430.03" width="13.92" height="5.69" transform="translate(196.02 865.75) rotate(180)" style="fill:#fff"></rect><rect x="47.72" y="297.62" width="35.86" height="160.84" transform="translate(131.29 756.07) rotate(180)" style="fill:#c7c7c7"></rect><rect x="51.31" y="430.03" width="11.43" height="5.69" style="fill:#ebebeb"></rect><rect x="65.93" y="430.03" width="11.43" height="5.69" style="fill:#ebebeb"></rect><rect x="51.31" y="420.38" width="11.43" height="5.69" style="fill:#ebebeb"></rect><rect x="65.93" y="420.38" width="11.43" height="5.69" style="fill:#ebebeb"></rect><rect x="51.31" y="410.73" width="11.43" height="5.69" style="fill:#ebebeb"></rect><rect x="65.93" y="410.73" width="11.43" height="5.69" style="fill:#ebebeb"></rect><rect x="51.31" y="401.07" width="11.43" height="5.69" style="fill:#ebebeb"></rect><rect x="65.93" y="401.07" width="11.43" height="5.69" style="fill:#ebebeb"></rect><rect x="51.31" y="391.42" width="11.43" height="5.69" style="fill:#ebebeb"></rect><rect x="65.93" y="391.42" width="11.43" height="5.69" style="fill:#ebebeb"></rect><rect x="51.31" y="381.76" width="11.43" height="5.69" style="fill:#ebebeb"></rect><rect x="65.93" y="381.76" width="11.43" height="5.69" style="fill:#ebebeb"></rect><rect x="51.31" y="372.11" width="11.43" height="5.69" style="fill:#ebebeb"></rect><rect x="65.93" y="372.11" width="11.43" height="5.69" style="fill:#ebebeb"></rect><rect x="51.31" y="362.46" width="11.43" height="5.69" style="fill:#ebebeb"></rect><rect x="65.93" y="362.46" width="11.43" height="5.69" style="fill:#ebebeb"></rect><rect x="51.31" y="352.8" width="11.43" height="5.69" style="fill:#ebebeb"></rect><rect x="65.93" y="352.8" width="11.43" height="5.69" style="fill:#ebebeb"></rect><rect x="51.31" y="343.15" width="11.43" height="5.69" style="fill:#ebebeb"></rect><rect x="65.93" y="343.15" width="11.43" height="5.69" style="fill:#ebebeb"></rect><rect x="51.31" y="333.49" width="11.43" height="5.69" style="fill:#ebebeb"></rect><rect x="65.93" y="333.49" width="11.43" height="5.69" style="fill:#ebebeb"></rect><rect x="51.31" y="323.84" width="11.43" height="5.69" style="fill:#ebebeb"></rect><rect x="65.93" y="323.84" width="11.43" height="5.69" style="fill:#ebebeb"></rect><rect x="51.31" y="314.19" width="11.43" height="5.69" style="fill:#ebebeb"></rect><rect x="65.93" y="314.19" width="11.43" height="5.69" style="fill:#ebebeb"></rect><rect x="51.31" y="304.53" width="11.43" height="5.69" style="fill:#ebebeb"></rect><rect x="65.93" y="304.53" width="11.43" height="5.69" style="fill:#ebebeb"></rect><rect x="343.48" y="267.39" width="27.37" height="32.33" transform="translate(714.32 567.11) rotate(180)" style="fill:#dbdbdb"></rect><rect x="326.13" y="267.39" width="17.35" height="33.52" transform="translate(669.6 568.3) rotate(180)" style="fill:#c7c7c7"></rect><rect x="324.97" y="281.67" width="17.22" height="19.24" transform="translate(667.16 582.57) rotate(180)" style="fill:#dbdbdb"></rect><rect x="314.23" y="281.67" width="10.74" height="19.24" transform="translate(639.2 582.57) rotate(180)" style="fill:#c7c7c7"></rect><rect x="337.09" y="297.62" width="44.25" height="160.84" transform="translate(718.43 756.07) rotate(180)" style="fill:#ebebeb"></rect><rect x="362.37" y="304.53" width="13.92" height="5.69" transform="translate(738.65 614.75) rotate(180)" style="fill:#fff"></rect><rect x="344.57" y="304.53" width="13.92" height="5.69" transform="translate(703.05 614.75) rotate(180)" style="fill:#fff"></rect><rect x="362.37" y="314.19" width="13.92" height="5.69" transform="translate(738.65 634.06) rotate(180)" style="fill:#fff"></rect><rect x="344.57" y="314.19" width="13.92" height="5.69" transform="translate(703.05 634.06) rotate(180)" style="fill:#fff"></rect><rect x="362.37" y="323.84" width="13.92" height="5.69" transform="translate(738.65 653.37) rotate(180)" style="fill:#fff"></rect><rect x="344.57" y="323.84" width="13.92" height="5.69" transform="translate(703.05 653.37) rotate(180)" style="fill:#fff"></rect><rect x="362.37" y="333.49" width="13.92" height="5.69" transform="translate(738.65 672.68) rotate(180)" style="fill:#fff"></rect><rect x="344.57" y="333.49" width="13.92" height="5.69" transform="translate(703.05 672.68) rotate(180)" style="fill:#fff"></rect><rect x="362.37" y="343.15" width="13.92" height="5.69" transform="translate(738.65 691.98) rotate(180)" style="fill:#fff"></rect><rect x="344.57" y="343.15" width="13.92" height="5.69" transform="translate(703.05 691.98) rotate(180)" style="fill:#fff"></rect><rect x="362.37" y="352.8" width="13.92" height="5.69" transform="translate(738.65 711.29) rotate(180)" style="fill:#fff"></rect><rect x="344.57" y="352.8" width="13.92" height="5.69" transform="translate(703.05 711.29) rotate(180)" style="fill:#fff"></rect><rect x="362.37" y="362.46" width="13.92" height="5.69" transform="translate(738.65 730.6) rotate(180)" style="fill:#fff"></rect><rect x="344.57" y="362.46" width="13.92" height="5.69" transform="translate(703.05 730.6) rotate(180)" style="fill:#fff"></rect><rect x="362.37" y="372.11" width="13.92" height="5.69" transform="translate(738.65 749.91) rotate(180)" style="fill:#fff"></rect><rect x="344.57" y="372.11" width="13.92" height="5.69" transform="translate(703.05 749.91) rotate(180)" style="fill:#fff"></rect><rect x="362.37" y="381.76" width="13.92" height="5.69" transform="translate(738.65 769.21) rotate(180)" style="fill:#fff"></rect><rect x="344.57" y="381.76" width="13.92" height="5.69" transform="translate(703.05 769.21) rotate(180)" style="fill:#fff"></rect><rect x="362.37" y="391.42" width="13.92" height="5.69" transform="translate(738.65 788.52) rotate(180)" style="fill:#fff"></rect><rect x="344.57" y="391.42" width="13.92" height="5.69" transform="translate(703.05 788.52) rotate(180)" style="fill:#fff"></rect><rect x="362.37" y="401.07" width="13.92" height="5.69" transform="translate(738.65 807.83) rotate(180)" style="fill:#fff"></rect><rect x="344.57" y="401.07" width="13.92" height="5.69" transform="translate(703.05 807.83) rotate(180)" style="fill:#fff"></rect><rect x="362.37" y="410.73" width="13.92" height="5.69" transform="translate(738.65 827.14) rotate(180)" style="fill:#fff"></rect><rect x="344.57" y="410.73" width="13.92" height="5.69" transform="translate(703.05 827.14) rotate(180)" style="fill:#fff"></rect><rect x="362.37" y="420.38" width="13.92" height="5.69" transform="translate(738.65 846.45) rotate(180)" style="fill:#fff"></rect><rect x="344.57" y="420.38" width="13.92" height="5.69" transform="translate(703.05 846.45) rotate(180)" style="fill:#fff"></rect><rect x="362.37" y="430.03" width="13.92" height="5.69" transform="translate(738.65 865.75) rotate(180)" style="fill:#fff"></rect><rect x="344.57" y="430.03" width="13.92" height="5.69" transform="translate(703.05 865.75) rotate(180)" style="fill:#fff"></rect><rect x="301.23" y="297.62" width="35.86" height="160.84" transform="translate(638.32 756.07) rotate(180)" style="fill:#c7c7c7"></rect><rect x="304.82" y="430.03" width="11.43" height="5.69" style="fill:#ebebeb"></rect><rect x="319.44" y="430.03" width="11.43" height="5.69" style="fill:#ebebeb"></rect><rect x="304.82" y="420.38" width="11.43" height="5.69" style="fill:#ebebeb"></rect><rect x="319.44" y="420.38" width="11.43" height="5.69" style="fill:#ebebeb"></rect><rect x="304.82" y="410.73" width="11.43" height="5.69" style="fill:#ebebeb"></rect><rect x="319.44" y="410.73" width="11.43" height="5.69" style="fill:#ebebeb"></rect><rect x="304.82" y="401.07" width="11.43" height="5.69" style="fill:#ebebeb"></rect><rect x="319.44" y="401.07" width="11.43" height="5.69" style="fill:#ebebeb"></rect><rect x="304.82" y="391.42" width="11.43" height="5.69" style="fill:#ebebeb"></rect><rect x="319.44" y="391.42" width="11.43" height="5.69" style="fill:#ebebeb"></rect><rect x="304.82" y="381.76" width="11.43" height="5.69" style="fill:#ebebeb"></rect><rect x="319.44" y="381.76" width="11.43" height="5.69" style="fill:#ebebeb"></rect><rect x="304.82" y="372.11" width="11.43" height="5.69" style="fill:#ebebeb"></rect><rect x="319.44" y="372.11" width="11.43" height="5.69" style="fill:#ebebeb"></rect><rect x="304.82" y="362.46" width="11.43" height="5.69" style="fill:#ebebeb"></rect><rect x="319.44" y="362.46" width="11.43" height="5.69" style="fill:#ebebeb"></rect><rect x="304.82" y="352.8" width="11.43" height="5.69" style="fill:#ebebeb"></rect><rect x="319.44" y="352.8" width="11.43" height="5.69" style="fill:#ebebeb"></rect><rect x="304.82" y="343.15" width="11.43" height="5.69" style="fill:#ebebeb"></rect><rect x="319.44" y="343.15" width="11.43" height="5.69" style="fill:#ebebeb"></rect><rect x="304.82" y="333.49" width="11.43" height="5.69" style="fill:#ebebeb"></rect><rect x="319.44" y="333.49" width="11.43" height="5.69" style="fill:#ebebeb"></rect><rect x="304.82" y="323.84" width="11.43" height="5.69" style="fill:#ebebeb"></rect><rect x="319.44" y="323.84" width="11.43" height="5.69" style="fill:#ebebeb"></rect><rect x="304.82" y="314.19" width="11.43" height="5.69" style="fill:#ebebeb"></rect><rect x="319.44" y="314.19" width="11.43" height="5.69" style="fill:#ebebeb"></rect><rect x="304.82" y="304.53" width="11.43" height="5.69" style="fill:#ebebeb"></rect><rect x="319.44" y="304.53" width="11.43" height="5.69" style="fill:#ebebeb"></rect><rect x="243.43" y="353.65" width="52.2" height="104.8" transform="translate(539.06 812.11) rotate(180)" style="fill:#c7c7c7"></rect><rect x="278.18" y="362.72" width="9.24" height="6.42" transform="translate(565.6 731.87) rotate(180)" style="fill:#dbdbdb"></rect><rect x="278.18" y="376.44" width="9.24" height="6.42" transform="translate(565.6 759.3) rotate(180)" style="fill:#dbdbdb"></rect><rect x="278.18" y="390.15" width="9.24" height="6.42" transform="translate(565.6 786.73) rotate(180)" style="fill:#dbdbdb"></rect><rect x="278.18" y="403.87" width="9.24" height="6.42" transform="translate(565.6 814.16) rotate(180)" style="fill:#dbdbdb"></rect><rect x="278.18" y="417.58" width="9.24" height="6.42" transform="translate(565.6 841.59) rotate(180)" style="fill:#dbdbdb"></rect><rect x="278.18" y="431.3" width="9.24" height="6.42" transform="translate(565.6 869.02) rotate(180)" style="fill:#dbdbdb"></rect><rect x="278.18" y="445.01" width="9.24" height="6.42" transform="translate(565.6 896.44) rotate(180)" style="fill:#dbdbdb"></rect><rect x="264.89" y="362.72" width="9.24" height="6.42" transform="translate(539.02 731.87) rotate(180)" style="fill:#dbdbdb"></rect><rect x="264.89" y="376.44" width="9.24" height="6.42" transform="translate(539.02 759.3) rotate(180)" style="fill:#dbdbdb"></rect><rect x="264.89" y="390.15" width="9.24" height="6.42" transform="translate(539.02 786.73) rotate(180)" style="fill:#dbdbdb"></rect><rect x="264.89" y="403.87" width="9.24" height="6.42" transform="translate(539.02 814.16) rotate(180)" style="fill:#dbdbdb"></rect><rect x="264.89" y="417.58" width="9.24" height="6.42" transform="translate(539.02 841.59) rotate(180)" style="fill:#dbdbdb"></rect><rect x="264.89" y="431.3" width="9.24" height="6.42" transform="translate(539.02 869.02) rotate(180)" style="fill:#dbdbdb"></rect><rect x="264.89" y="445.01" width="9.24" height="6.42" transform="translate(539.02 896.44) rotate(180)" style="fill:#dbdbdb"></rect><rect x="251.64" y="362.72" width="9.24" height="6.42" transform="translate(512.51 731.87) rotate(180)" style="fill:#dbdbdb"></rect><rect x="251.64" y="376.44" width="9.24" height="6.42" transform="translate(512.51 759.3) rotate(180)" style="fill:#dbdbdb"></rect><rect x="251.64" y="390.15" width="9.24" height="6.42" transform="translate(512.51 786.73) rotate(180)" style="fill:#dbdbdb"></rect><rect x="251.64" y="403.87" width="9.24" height="6.42" transform="translate(512.51 814.16) rotate(180)" style="fill:#dbdbdb"></rect><rect x="251.64" y="417.58" width="9.24" height="6.42" transform="translate(512.51 841.59) rotate(180)" style="fill:#dbdbdb"></rect><rect x="251.64" y="431.3" width="9.24" height="6.42" transform="translate(512.51 869.02) rotate(180)" style="fill:#dbdbdb"></rect><rect x="251.64" y="445.01" width="9.24" height="6.42" transform="translate(512.51 896.44) rotate(180)" style="fill:#dbdbdb"></rect><rect x="243.43" y="342.73" width="34.75" height="10.92" transform="translate(521.61 696.39) rotate(180)" style="fill:#dbdbdb"></rect><rect x="243.43" y="335.97" width="22.03" height="6.76" transform="translate(508.89 678.71) rotate(180)" style="fill:#ebebeb"></rect><rect x="206.81" y="353.65" width="36.62" height="104.8" transform="translate(450.23 812.11) rotate(180)" style="fill:#a6a6a6"></rect><rect x="210.55" y="443.99" width="7.52" height="6.42" style="fill:#c7c7c7"></rect><rect x="210.55" y="430.27" width="7.52" height="6.42" style="fill:#c7c7c7"></rect><rect x="210.55" y="416.56" width="7.52" height="6.42" style="fill:#c7c7c7"></rect><rect x="210.55" y="402.84" width="7.52" height="6.42" style="fill:#c7c7c7"></rect><rect x="210.55" y="389.13" width="7.52" height="6.42" style="fill:#c7c7c7"></rect><rect x="210.55" y="375.41" width="7.52" height="6.42" style="fill:#c7c7c7"></rect><rect x="210.55" y="361.7" width="7.52" height="6.42" style="fill:#c7c7c7"></rect><rect x="221.37" y="443.99" width="7.52" height="6.42" style="fill:#c7c7c7"></rect><rect x="221.37" y="430.27" width="7.52" height="6.42" style="fill:#c7c7c7"></rect><rect x="221.37" y="416.56" width="7.52" height="6.42" style="fill:#c7c7c7"></rect><rect x="221.37" y="402.84" width="7.52" height="6.42" style="fill:#c7c7c7"></rect><rect x="221.37" y="389.13" width="7.52" height="6.42" style="fill:#c7c7c7"></rect><rect x="221.37" y="375.41" width="7.52" height="6.42" style="fill:#c7c7c7"></rect><rect x="221.37" y="361.7" width="7.52" height="6.42" style="fill:#c7c7c7"></rect><rect x="232.16" y="443.99" width="7.52" height="6.42" style="fill:#c7c7c7"></rect><rect x="232.16" y="430.27" width="7.52" height="6.42" style="fill:#c7c7c7"></rect><rect x="232.16" y="416.56" width="7.52" height="6.42" style="fill:#c7c7c7"></rect><rect x="232.16" y="402.84" width="7.52" height="6.42" style="fill:#c7c7c7"></rect><rect x="232.16" y="389.13" width="7.52" height="6.42" style="fill:#c7c7c7"></rect><rect x="232.16" y="375.41" width="7.52" height="6.42" style="fill:#c7c7c7"></rect><rect x="232.16" y="361.7" width="7.52" height="6.42" style="fill:#c7c7c7"></rect><rect x="212.35" y="342.73" width="31.08" height="10.92" transform="translate(455.78 696.39) rotate(180)" style="fill:#c7c7c7"></rect><rect x="226.59" y="335.97" width="16.84" height="6.76" transform="translate(470.02 678.71) rotate(180)" style="fill:#dbdbdb"></rect></g><g id="freepik--Floor--inject-36"><path d="M45.75,458.43c130.86-.61,277.64-.62,408.5,0-130.86.62-277.64.61-408.5,0Z" style="fill:#263238"></path><rect x="43.65" y="458.43" width="412.71" height="7.13" style="fill:#c7c7c7"></rect><path d="M72.58,458.43a11.88,11.88,0,0,1,.49,3.57,11.5,11.5,0,0,1-.49,3.56,11.5,11.5,0,0,1-.49-3.56A11.88,11.88,0,0,1,72.58,458.43Z" style="fill:#263238"></path><path d="M104.84,458.43a12.2,12.2,0,0,1,.49,3.57,11.81,11.81,0,0,1-.49,3.56,13.21,13.21,0,0,1,0-7.13Z" style="fill:#263238"></path><path d="M137.1,458.43a12.2,12.2,0,0,1,.49,3.57,11.81,11.81,0,0,1-.49,3.56,13.21,13.21,0,0,1,0-7.13Z" style="fill:#263238"></path><path d="M169.35,458.43a13.21,13.21,0,0,1,0,7.13,13.21,13.21,0,0,1,0-7.13Z" style="fill:#263238"></path><path d="M201.61,458.43a13.21,13.21,0,0,1,0,7.13,11.81,11.81,0,0,1-.49-3.56A12.2,12.2,0,0,1,201.61,458.43Z" style="fill:#263238"></path><path d="M233.87,458.43a11.88,11.88,0,0,1,.49,3.57,11.5,11.5,0,0,1-.49,3.56,11.5,11.5,0,0,1-.49-3.56A11.88,11.88,0,0,1,233.87,458.43Z" style="fill:#263238"></path><path d="M266.13,458.43a11.88,11.88,0,0,1,.49,3.57,11.5,11.5,0,0,1-.49,3.56,11.5,11.5,0,0,1-.49-3.56A11.88,11.88,0,0,1,266.13,458.43Z" style="fill:#263238"></path><path d="M298.39,458.43a12.2,12.2,0,0,1,.49,3.57,11.81,11.81,0,0,1-.49,3.56,13.21,13.21,0,0,1,0-7.13Z" style="fill:#263238"></path><path d="M330.65,458.43a13.21,13.21,0,0,1,0,7.13,13.21,13.21,0,0,1,0-7.13Z" style="fill:#263238"></path><path d="M362.9,458.43a13.21,13.21,0,0,1,0,7.13,11.81,11.81,0,0,1-.49-3.56A12.2,12.2,0,0,1,362.9,458.43Z" style="fill:#263238"></path><path d="M395.16,458.43a13.21,13.21,0,0,1,0,7.13,11.81,11.81,0,0,1-.49-3.56A12.2,12.2,0,0,1,395.16,458.43Z" style="fill:#263238"></path><path d="M427.42,458.43a11.88,11.88,0,0,1,.49,3.57,11.5,11.5,0,0,1-.49,3.56,11.5,11.5,0,0,1-.49-3.56A11.88,11.88,0,0,1,427.42,458.43Z" style="fill:#263238"></path></g></svg>
