<svg xmlns="http://www.w3.org/2000/svg" xmlns:xlink="http://www.w3.org/1999/xlink" width="500" zoomAndPan="magnify" viewBox="0 0 375 374.999991" height="500" preserveAspectRatio="xMidYMid meet" version="1.0"><defs><clipPath id="1839a6cb2f"><path d="M 7 157 L 119 157 L 119 261.621094 L 7 261.621094 Z M 7 157 " clip-rule="nonzero"/></clipPath><clipPath id="5855801e87"><path d="M 314 113.144531 L 368 113.144531 L 368 167 L 314 167 Z M 314 113.144531 " clip-rule="nonzero"/></clipPath></defs><path fill="#ff8762" d="M 320.375 154.066406 C 301.359375 170.800781 280.585938 189.285156 261.566406 206.019531 C 261.574219 206.035156 261.585938 206.050781 261.59375 206.066406 C 261.789062 206.332031 261.972656 206.621094 262.136719 206.945312 C 262.320312 207.265625 262.464844 207.582031 262.585938 207.902344 C 263.996094 211.015625 264.820312 214.371094 265.0625 217.757812 C 285.691406 199.601562 308.078125 179.703125 328.707031 161.550781 C 325.457031 159.632812 322.597656 157.082031 320.375 154.066406 Z M 320.375 154.066406 " fill-opacity="1" fill-rule="nonzero"/><path fill="#ff8762" d="M 164.859375 154.167969 C 164.566406 158.300781 163.289062 162.277344 161.238281 165.792969 C 178.523438 181 197.566406 197.957031 214.855469 213.167969 C 215.75 209.390625 217.4375 205.820312 219.894531 202.789062 C 202.132812 187.164062 182.621094 169.792969 164.859375 154.167969 Z M 164.859375 154.167969 " fill-opacity="1" fill-rule="nonzero"/><g clip-path="url(#1839a6cb2f)"><path fill="#ff8762" d="M 49.828125 214.035156 C 45.480469 210.746094 40.039062 208.722656 33.855469 208.386719 C 18.8125 207.578125 7.945312 221.160156 7.199219 234.988281 C 6.390625 250 20 260.84375 33.855469 261.585938 C 48.292969 262.363281 58.859375 249.875 60.34375 236.648438 C 60.46875 236.140625 60.542969 235.605469 60.511719 234.988281 C 60.542969 234.386719 60.46875 233.855469 60.351562 233.355469 C 59.933594 229.363281 58.820312 225.691406 57.078125 222.472656 C 77.320312 204.671875 98.433594 185.992188 118.671875 168.1875 C 116.300781 165.109375 114.609375 161.519531 113.871094 157.59375 C 92.816406 176.117188 70.882812 195.515625 49.828125 214.035156 Z M 18.359375 234.984375 C 17.28125 215.039062 48.28125 215.144531 49.351562 234.984375 C 48.277344 254.921875 19.433594 254.921875 18.359375 234.984375 Z M 18.359375 234.984375 " fill-opacity="1" fill-rule="nonzero"/></g><path fill="#ff8762" d="M 165.609375 150.019531 C 165.582031 149.808594 165.546875 149.605469 165.507812 149.402344 C 165.492188 149.121094 165.464844 148.835938 165.410156 148.539062 C 162.882812 135.152344 150.464844 125.722656 136.863281 126.863281 C 123.03125 128.023438 112.964844 139.78125 112.585938 153.332031 C 112.535156 155.09375 112.683594 156.808594 112.996094 158.464844 C 113.734375 162.390625 115.425781 165.980469 117.796875 169.058594 C 123.042969 175.871094 131.613281 180.15625 140.515625 179.894531 C 149.796875 179.617188 157.71875 174.203125 162.113281 166.664062 C 164.164062 163.152344 165.445312 159.175781 165.738281 155.039062 C 165.855469 153.382812 165.820312 151.703125 165.609375 150.019531 Z M 140.515625 168.757812 C 131.28125 169.585938 124.191406 162.160156 123.742188 153.332031 C 123.339844 145.382812 129.910156 139.398438 137.1875 137.960938 C 145.722656 136.28125 152.789062 143.21875 154.523438 150.902344 C 155.238281 159.722656 149.90625 167.917969 140.515625 168.757812 Z M 140.515625 168.757812 " fill-opacity="1" fill-rule="nonzero"/><path fill="#ff8762" d="M 263.011719 206.070312 C 262.847656 205.746094 262.664062 205.457031 262.472656 205.191406 C 262.460938 205.171875 262.453125 205.160156 262.441406 205.144531 C 254.699219 192.9375 239.324219 189.015625 226.457031 195.796875 C 223.484375 197.367188 221 199.464844 219.019531 201.914062 C 216.5625 204.945312 214.875 208.515625 213.980469 212.292969 C 212.375 219.050781 213.289062 226.472656 216.84375 232.648438 C 223.886719 244.898438 239.355469 248.199219 251.671875 242.640625 C 261.910156 238.019531 266.691406 227.316406 265.941406 216.882812 C 265.699219 213.496094 264.875 210.136719 263.464844 207.023438 C 263.339844 206.707031 263.199219 206.390625 263.011719 206.070312 Z M 247.058594 232.496094 C 240.4375 236.410156 231.492188 234.035156 227.085938 227.96875 C 221.976562 220.9375 223.914062 211.027344 230.964844 206.097656 C 238.691406 200.695312 248.859375 203.9375 253.375 211.6875 C 257.242188 219.402344 254.359375 228.171875 247.058594 232.496094 Z M 247.058594 232.496094 " fill-opacity="1" fill-rule="nonzero"/><g clip-path="url(#5855801e87)"><path fill="#ff8762" d="M 367.949219 138.527344 C 367.558594 124.554688 355.742188 113.996094 342.253906 113.171875 C 341.957031 113.136719 341.652344 113.113281 341.332031 113.121094 C 341.007812 113.113281 340.707031 113.136719 340.417969 113.167969 C 326.398438 113.988281 315.878906 124.554688 314.703125 138.527344 C 314.191406 144.644531 316.09375 150.328125 319.5 154.941406 C 321.71875 157.953125 324.582031 160.507812 327.832031 162.425781 C 332.558594 165.214844 338.105469 166.660156 343.703125 166.191406 C 357.886719 165 368.34375 152.515625 367.949219 138.527344 Z M 343.382812 155.089844 C 333.449219 157.050781 325.609375 147.628906 325.867188 138.527344 C 326.09375 130.386719 333.628906 124.472656 341.332031 124.257812 C 349.375 124.480469 356.109375 130.394531 356.792969 138.527344 C 357.5 146.960938 351.324219 153.527344 343.382812 155.089844 Z M 343.382812 155.089844 " fill-opacity="1" fill-rule="nonzero"/></g></svg>